# Blender v2.78 (sub 0) OBJ File: ''
# www.blender.org
o Cube.001_Cube.002
v -0.500000 0.130000 0.550000
v 0.500000 0.130000 0.550000
v -0.500000 0.500000 0.550000
v 0.500000 0.500000 0.550000
v -0.375000 0.130000 0.550000
v -0.250000 0.000000 0.550000
v -0.125000 0.000000 0.550000
v 0.000000 0.130000 0.550000
v 0.125000 0.130000 0.550000
v 0.250000 0.000000 0.550000
v 0.375000 0.000000 0.550000
v -0.500000 0.142500 -0.550000
v -0.500000 0.130000 -0.522500
v -0.500000 0.133661 -0.541945
v 0.500000 0.130000 -0.522500
v 0.500000 0.158849 -0.550000
v 0.500000 0.138450 -0.541945
v -0.359280 0.142500 -0.550000
v -0.375000 0.130000 -0.522500
v -0.370396 0.133661 -0.541945
v -0.234280 0.012500 -0.550000
v -0.250000 0.000000 -0.522500
v -0.245396 0.003661 -0.541945
v -0.140720 0.012500 -0.550000
v -0.125000 0.000000 -0.522500
v -0.129604 0.003661 -0.541945
v -0.015720 0.142500 -0.550000
v -0.000000 0.130000 -0.522500
v -0.004604 0.133661 -0.541945
v 0.140720 0.142500 -0.550000
v 0.125000 0.130000 -0.522500
v 0.129604 0.133661 -0.541945
v 0.265720 0.012500 -0.550000
v 0.250000 0.000000 -0.522500
v 0.254604 0.003661 -0.541945
v 0.375000 0.000000 -0.522500
v 0.359280 0.012500 -0.550000
v 0.370396 0.003661 -0.541946
v -0.500000 0.500000 -0.440000
v -0.500000 0.450000 -0.550000
v -0.500000 0.493301 -0.495000
v -0.500000 0.475000 -0.535263
v 0.500000 0.450000 -0.550000
v 0.500000 0.500000 -0.440000
v 0.500000 0.475000 -0.535263
v 0.500000 0.493301 -0.495000
vt 0.0000 0.0000
vt 0.2539 0.0000
vt 0.2539 0.0418
vt 0.3431 0.0835
vt 0.3431 0.1253
vt 0.2539 0.1671
vt 0.2539 0.2088
vt 0.3431 0.2506
vt 0.3431 0.2924
vt 0.2539 0.3341
vt 0.0000 0.3341
vt 0.6995 0.3341
vt 0.6995 0.0000
vt 0.8952 0.0000
vt 0.9936 0.0470
vt 0.9936 0.0783
vt 0.9062 0.1201
vt 0.9062 0.1723
vt 0.9936 0.2141
vt 0.9936 0.2454
vt 0.9062 0.2871
vt 0.9062 0.3341
vt 0.6836 0.6683
vt 0.4411 0.6683
vt 0.4411 0.3676
vt 0.4454 0.3509
vt 0.4574 0.3386
vt 0.4738 0.3341
vt 0.6755 0.3341
vt 0.6812 0.3366
vt 0.6836 0.3425
vt 0.0019 1.0000
vt 0.0019 0.6742
vt 0.0998 0.6742
vt 0.0998 1.0000
vt 0.1459 0.9941
vt 0.1459 0.6746
vt 0.1888 0.6746
vt 0.1888 0.9941
vt 0.3431 0.3341
vt 0.3431 0.0084
vt 0.4411 0.0084
vt 0.4411 0.3341
vt 0.1904 0.9941
vt 0.1904 0.6746
vt 0.2333 0.6746
vt 0.2333 0.9941
vt 0.4411 0.6659
vt 0.4411 0.9916
vt 0.3431 0.9916
vt 0.3431 0.6659
vt 0.1014 0.9941
vt 0.1014 0.6746
vt 0.1443 0.6746
vt 0.1443 0.9941
vt 0.3431 0.6659
vt 0.3431 0.3401
vt 0.4411 0.3401
vt 0.4411 0.6659
vt 0.2762 0.6683
vt 0.2762 0.9878
vt 0.2333 0.9878
vt 0.2333 0.6683
vt 0.9094 0.0000
vt 1.0000 0.0433
vt 0.3451 0.0024
vt 0.4466 0.0024
vt 0.9126 0.2908
vt 0.9126 0.3341
vt 0.1459 0.6683
vt 0.1904 0.6683
vt 1.0000 0.2491
vt 0.0000 0.6683
vt 0.0979 0.6683
vt 1.0000 0.2104
vt 0.1919 0.6683
vt 0.2317 0.6683
vt 0.9126 0.1686
vt 0.4391 0.9976
vt 0.3412 0.9976
vt 0.9126 0.1238
vt 0.0998 0.6683
vt 0.1459 0.6683
vt 1.0000 0.0820
vt 0.3412 0.3341
vt 0.4391 0.3341
vt 0.2746 0.9941
vt 0.2348 0.9941
vt 0.4600 0.0000
vt 0.6509 0.0000
vt 0.6673 0.0045
vt 0.6793 0.0167
vt 0.6836 0.0334
vt 0.6836 0.3341
vt 0.3062 0.6683
vt 0.3062 0.3341
vt 0.3238 0.3341
vt 0.3238 0.6683
vt 0.3379 0.3341
vt 0.3379 0.6683
vt 0.6836 0.3341
vt 0.6836 0.0000
vt 0.0000 0.6683
vn 0.0000 0.0000 1.0000
vn -0.0000 -0.0000 -1.0000
vn -1.0000 0.0000 0.0000
vn -0.7208 -0.6931 0.0000
vn 0.0000 -1.0000 0.0000
vn 0.7208 -0.6931 -0.0000
vn 0.3568 -0.3431 -0.8689
vn 0.6902 -0.6637 -0.2884
vn 0.0000 -0.6736 -0.7391
vn -0.0000 -0.9827 -0.1850
vn -0.3568 -0.3431 -0.8689
vn -0.6902 -0.6637 -0.2884
vn 1.0000 -0.0000 -0.0000
vn 0.0000 0.9927 -0.1209
vn 0.0000 0.9104 -0.4138
vn 0.0000 0.5078 -0.8615
vn 0.0000 1.0000 0.0000
s off
f 3/1/1 1/2/1 5/3/1 6/4/1 7/5/1 8/6/1 9/7/1 10/8/1 11/9/1 2/10/1 4/11/1
f 40/12/2 43/13/2 16/14/2 37/15/2 33/16/2 30/17/2 27/18/2 24/19/2 21/20/2 18/21/2 12/22/2
f 1/23/3 3/24/3 39/25/3 41/26/3 42/27/3 40/28/3 12/29/3 14/30/3 13/31/3
f 5/32/4 19/33/4 22/34/4 6/35/4
f 1/36/5 13/37/5 19/38/5 5/39/5
f 11/40/6 36/41/6 15/42/6 2/43/6
f 6/44/5 22/45/5 25/46/5 7/47/5
f 7/48/6 25/49/6 28/50/6 8/51/6
f 8/52/5 28/53/5 31/54/5 9/55/5
f 9/56/4 31/57/4 34/58/4 10/59/4
f 10/60/5 34/61/5 36/62/5 11/63/5
f 37/15/7 16/14/7 17/64/7 38/65/7
f 38/66/8 17/67/8 15/42/8 36/41/8
f 12/22/9 18/21/9 20/68/9 14/69/9
f 14/70/10 20/71/10 19/38/10 13/37/10
f 18/21/11 21/20/11 23/72/11 20/68/11
f 20/73/12 23/74/12 22/34/12 19/33/12
f 21/20/9 24/19/9 26/75/9 23/72/9
f 23/76/10 26/77/10 25/46/10 22/45/10
f 24/19/7 27/18/7 29/78/7 26/75/7
f 26/79/8 29/80/8 28/50/8 25/49/8
f 27/18/9 30/17/9 32/81/9 29/78/9
f 29/82/10 32/83/10 31/54/10 28/53/10
f 30/17/11 33/16/11 35/84/11 32/81/11
f 32/85/12 35/86/12 34/58/12 31/57/12
f 33/16/9 37/15/9 38/65/9 35/84/9
f 35/87/10 38/88/10 36/62/10 34/61/10
f 15/42/13 17/67/13 16/89/13 43/90/13 45/91/13 46/92/13 44/93/13 4/94/13 2/43/13
f 39/95/14 44/96/14 46/97/14 41/98/14
f 41/98/15 46/97/15 45/99/15 42/100/15
f 42/101/16 45/102/16 43/13/16 40/12/16
f 3/103/17 4/11/17 44/96/17 39/95/17
