# Blender v2.78 (sub 0) OBJ File: ''
# www.blender.org
o Cube
v -0.500000 -0.500000 0.500000
v 0.500000 -0.500000 0.500000
v -0.500000 0.450000 0.500000
v -0.500000 0.450000 -0.500000
v 0.500000 0.450000 -0.500000
v 0.500000 0.450000 0.500000
v -0.500000 -0.450000 -0.500000
v -0.500000 -0.500000 -0.450000
v -0.500000 -0.475000 -0.493301
v -0.500000 -0.493301 -0.475000
v 0.500000 -0.500000 -0.450000
v 0.500000 -0.450000 -0.500000
v 0.500000 -0.493301 -0.475000
v 0.500000 -0.475000 -0.493301
vn 0.0000 -0.0000 -1.0000
vn 0.0000 1.0000 -0.0000
vn 0.0000 -1.0000 -0.0000
vn 1.0000 -0.0000 -0.0000
vn 0.0000 0.0000 1.0000
vn -0.0000 -0.2588 -0.9659
vn -0.0000 -0.7071 -0.7071
vn -0.0000 -0.9659 -0.2588
vn -1.0000 0.0000 0.0000
s off
f 7//1 4//1 5//1 12//1
f 3//2 6//2 5//2 4//2
f 1//3 8//3 11//3 2//3
f 11//4 13//4 14//4 12//4 5//4 6//4 2//4
f 3//5 1//5 2//5 6//5
f 7//6 12//6 14//6 9//6
f 9//7 14//7 13//7 10//7
f 10//8 13//8 11//8 8//8
f 1//9 3//9 4//9 7//9 9//9 10//9 8//9
