# Blender v2.78 (sub 0) OBJ File: ''
# www.blender.org
mtllib Floor_End.mtl
o Cube
v -0.500000 -0.500000 0.500000
v 0.500000 0.500000 0.500000
v -0.500000 0.500000 0.500000
v -0.500000 0.500000 -0.500000
v 0.500000 -0.125000 -0.125000
v 0.125000 -0.500000 -0.125000
v 0.125000 -0.125000 -0.500000
v 0.125000 -0.500000 0.500000
v 0.500000 -0.125000 0.500000
v -0.500000 -0.125000 -0.500000
v -0.500000 -0.500000 -0.125000
v 0.500000 0.500000 -0.125000
v 0.125000 0.500000 -0.500000
vn 0.0000 0.0000 -1.0000
vn -0.0000 -0.0000 1.0000
vn -1.0000 -0.0000 -0.0000
vn 0.0000 1.0000 0.0000
vn 1.0000 0.0000 0.0000
vn 0.5774 -0.5774 -0.5774
vn 0.7071 -0.7071 0.0000
vn 0.0000 -0.7071 -0.7071
vn 0.7071 0.0000 -0.7071
vn 0.0000 -1.0000 -0.0000
usemtl Material
s off
f 13//1 7//1 10//1 4//1
f 8//2 9//2 2//2 3//2 1//2
f 1//3 3//3 4//3 10//3 11//3
f 12//4 13//4 4//4 3//4 2//4
f 5//5 12//5 2//5 9//5
f 5//6 6//6 7//6
f 5//7 9//7 8//7 6//7
f 6//8 11//8 10//8 7//8
f 7//9 13//9 12//9 5//9
f 6//10 8//10 1//10 11//10
