# Blender v2.78 (sub 0) OBJ File: ''
# www.blender.org
mtllib LabWall.mtl
o Cube
v -0.500000 -0.500000 0.100000
v -0.500000 -0.500000 -0.100000
v 0.500000 -0.500000 -0.100000
v 0.500000 -0.500000 0.100000
v -0.500000 0.500000 0.100000
v -0.500000 0.500000 -0.100000
v 0.500000 0.500000 -0.100000
v 0.500000 0.500000 0.100000
vt 0.2500 0.9999
vt 0.2001 0.9999
vt 0.2001 0.7500
vt 0.2500 0.7500
vt 0.4999 0.4999
vt 0.2500 0.4999
vt 0.2500 0.4500
vt 0.4999 0.4500
vt 0.7498 0.4999
vt 0.7498 0.4500
vt 0.4999 0.2001
vt 0.2500 0.2001
vt 0.0001 0.4500
vt 0.0001 0.4999
vt 0.4999 0.7498
vt 0.2500 0.7498
vn 0.0000 -1.0000 -0.0000
vn 0.0000 1.0000 0.0000
vn -1.0000 -0.0000 -0.0000
vn -0.0000 -0.0000 -1.0000
vn 1.0000 -0.0000 0.0000
vn 0.0000 0.0000 1.0000
usemtl Material
s off
f 1/1/1 2/2/1 3/3/1 4/4/1
f 5/5/2 8/6/2 7/7/2 6/8/2
f 1/9/3 5/5/3 6/8/3 2/10/3
f 2/11/4 6/8/4 7/7/4 3/12/4
f 3/13/5 7/7/5 8/6/5 4/14/5
f 5/5/6 1/15/6 4/16/6 8/6/6
